<svg width="28" height="28" viewBox="0 0 28 28" fill="none" xmlns="http://www.w3.org/2000/svg">
<path d="M18.9584 26.2493C20.086 26.2493 21.0001 25.3353 21.0001 24.2077C21.0001 23.0801 20.086 22.166 18.9584 22.166C17.8308 22.166 16.9167 23.0801 16.9167 24.2077C16.9167 25.3353 17.8308 26.2493 18.9584 26.2493Z" fill="white"/>
<path d="M9.62492 26.2493C10.7525 26.2493 11.6666 25.3353 11.6666 24.2077C11.6666 23.0801 10.7525 22.166 9.62492 22.166C8.49734 22.166 7.58325 23.0801 7.58325 24.2077C7.58325 25.3353 8.49734 26.2493 9.62492 26.2493Z" fill="white"/>
<path d="M5.64659 4.59732L5.41325 7.45565C5.36659 8.00398 5.79825 8.45898 6.34659 8.45898H24.2083C24.6983 8.45898 25.1066 8.08565 25.1416 7.59565C25.2933 5.53065 23.7183 3.85065 21.6532 3.85065H7.31492C7.19825 3.33732 6.96492 2.84732 6.60325 2.43898C6.01992 1.82065 5.20325 1.45898 4.36325 1.45898H2.33325C1.85492 1.45898 1.45825 1.85565 1.45825 2.33398C1.45825 2.81232 1.85492 3.20898 2.33325 3.20898H4.36325C4.72492 3.20898 5.06325 3.36065 5.30825 3.61732C5.55325 3.88565 5.66992 4.23565 5.64659 4.59732Z" fill="white"/>
<path d="M23.9282 10.209H6.03157C5.54157 10.209 5.1449 10.5823 5.09823 11.0607L4.67823 16.1357C4.5149 18.1307 6.07823 19.834 8.07323 19.834H21.0466C22.7966 19.834 24.3366 18.399 24.4649 16.649L24.8499 11.2007C24.8966 10.664 24.4766 10.209 23.9282 10.209Z" fill="white"/>
</svg>
